<mxfile host="app.diagrams.net" modified="2024-05-22T12:17:47.039Z" agent="Mozilla/5.0 (Macintosh; Intel Mac OS X 10_15_7) AppleWebKit/537.36 (KHTML, like Gecko) Chrome/123.0.0.0 Safari/537.36" etag="Gvce6kwF2ugi2f2qIOF_" version="24.4.4" type="github">
  <diagram name="Page-1" id="vqgmwehRILp-kLkWD4mR">
    <mxGraphModel dx="1026" dy="600" grid="1" gridSize="10" guides="1" tooltips="1" connect="1" arrows="1" fold="1" page="1" pageScale="1" pageWidth="850" pageHeight="1100" math="0" shadow="0">
      <root>
        <mxCell id="0" />
        <mxCell id="1" parent="0" />
        <mxCell id="BBTjjnWvdYqN-btuLSBB-18" style="edgeStyle=orthogonalEdgeStyle;rounded=0;orthogonalLoop=1;jettySize=auto;html=1;entryX=0.5;entryY=0;entryDx=0;entryDy=0;" edge="1" parent="1" source="BBTjjnWvdYqN-btuLSBB-2" target="BBTjjnWvdYqN-btuLSBB-16">
          <mxGeometry relative="1" as="geometry" />
        </mxCell>
        <mxCell id="BBTjjnWvdYqN-btuLSBB-43" style="edgeStyle=orthogonalEdgeStyle;rounded=0;orthogonalLoop=1;jettySize=auto;html=1;exitX=1;exitY=0.25;exitDx=0;exitDy=0;entryX=0.5;entryY=1;entryDx=0;entryDy=0;" edge="1" parent="1" source="BBTjjnWvdYqN-btuLSBB-2" target="BBTjjnWvdYqN-btuLSBB-34">
          <mxGeometry relative="1" as="geometry" />
        </mxCell>
        <mxCell id="BBTjjnWvdYqN-btuLSBB-2" value="Api Gateway" style="swimlane;whiteSpace=wrap;html=1;" vertex="1" parent="1">
          <mxGeometry x="190" y="240" width="120" height="130" as="geometry" />
        </mxCell>
        <mxCell id="BBTjjnWvdYqN-btuLSBB-37" value="DJANGO" style="text;html=1;align=center;verticalAlign=middle;whiteSpace=wrap;rounded=0;" vertex="1" parent="BBTjjnWvdYqN-btuLSBB-2">
          <mxGeometry x="30" y="50" width="60" height="30" as="geometry" />
        </mxCell>
        <mxCell id="BBTjjnWvdYqN-btuLSBB-25" style="edgeStyle=orthogonalEdgeStyle;rounded=0;orthogonalLoop=1;jettySize=auto;html=1;shape=arrow;" edge="1" parent="1" source="BBTjjnWvdYqN-btuLSBB-3" target="BBTjjnWvdYqN-btuLSBB-23">
          <mxGeometry relative="1" as="geometry" />
        </mxCell>
        <mxCell id="BBTjjnWvdYqN-btuLSBB-29" style="edgeStyle=orthogonalEdgeStyle;rounded=0;orthogonalLoop=1;jettySize=auto;html=1;entryX=1;entryY=0.5;entryDx=0;entryDy=0;" edge="1" parent="1" source="BBTjjnWvdYqN-btuLSBB-31" target="BBTjjnWvdYqN-btuLSBB-2">
          <mxGeometry relative="1" as="geometry" />
        </mxCell>
        <mxCell id="BBTjjnWvdYqN-btuLSBB-3" value="Api Currency" style="swimlane;whiteSpace=wrap;html=1;" vertex="1" parent="1">
          <mxGeometry x="580" y="240" width="120" height="130" as="geometry" />
        </mxCell>
        <mxCell id="BBTjjnWvdYqN-btuLSBB-36" value="FASTAPI" style="text;html=1;align=center;verticalAlign=middle;resizable=0;points=[];autosize=1;strokeColor=none;fillColor=none;" vertex="1" parent="BBTjjnWvdYqN-btuLSBB-3">
          <mxGeometry x="20" y="50" width="70" height="30" as="geometry" />
        </mxCell>
        <mxCell id="BBTjjnWvdYqN-btuLSBB-9" style="edgeStyle=orthogonalEdgeStyle;rounded=0;orthogonalLoop=1;jettySize=auto;html=1;entryX=0.5;entryY=1;entryDx=0;entryDy=0;" edge="1" parent="1" source="BBTjjnWvdYqN-btuLSBB-20" target="BBTjjnWvdYqN-btuLSBB-3">
          <mxGeometry relative="1" as="geometry" />
        </mxCell>
        <mxCell id="BBTjjnWvdYqN-btuLSBB-22" style="edgeStyle=orthogonalEdgeStyle;rounded=0;orthogonalLoop=1;jettySize=auto;html=1;entryX=0;entryY=0.5;entryDx=0;entryDy=0;" edge="1" parent="1" source="BBTjjnWvdYqN-btuLSBB-7" target="BBTjjnWvdYqN-btuLSBB-20">
          <mxGeometry relative="1" as="geometry" />
        </mxCell>
        <mxCell id="BBTjjnWvdYqN-btuLSBB-7" value="KAFKA" style="shape=parallelogram;perimeter=parallelogramPerimeter;whiteSpace=wrap;html=1;fixedSize=1;" vertex="1" parent="1">
          <mxGeometry x="390" y="425" width="120" height="60" as="geometry" />
        </mxCell>
        <mxCell id="BBTjjnWvdYqN-btuLSBB-19" style="edgeStyle=orthogonalEdgeStyle;rounded=0;orthogonalLoop=1;jettySize=auto;html=1;" edge="1" parent="1" source="BBTjjnWvdYqN-btuLSBB-16" target="BBTjjnWvdYqN-btuLSBB-7">
          <mxGeometry relative="1" as="geometry" />
        </mxCell>
        <mxCell id="BBTjjnWvdYqN-btuLSBB-16" value="UPDATE" style="text;html=1;align=center;verticalAlign=middle;whiteSpace=wrap;rounded=0;" vertex="1" parent="1">
          <mxGeometry x="220" y="440" width="60" height="30" as="geometry" />
        </mxCell>
        <mxCell id="BBTjjnWvdYqN-btuLSBB-20" value="UPDATE" style="text;html=1;align=center;verticalAlign=middle;whiteSpace=wrap;rounded=0;" vertex="1" parent="1">
          <mxGeometry x="610" y="440" width="60" height="30" as="geometry" />
        </mxCell>
        <mxCell id="BBTjjnWvdYqN-btuLSBB-23" value="DB" style="shape=cylinder3;whiteSpace=wrap;html=1;boundedLbl=1;backgroundOutline=1;size=15;" vertex="1" parent="1">
          <mxGeometry x="810" y="265" width="60" height="80" as="geometry" />
        </mxCell>
        <mxCell id="BBTjjnWvdYqN-btuLSBB-24" value="DB" style="shape=cylinder3;whiteSpace=wrap;html=1;boundedLbl=1;backgroundOutline=1;size=15;" vertex="1" parent="1">
          <mxGeometry x="50" y="265" width="60" height="80" as="geometry" />
        </mxCell>
        <mxCell id="BBTjjnWvdYqN-btuLSBB-26" style="edgeStyle=orthogonalEdgeStyle;rounded=0;orthogonalLoop=1;jettySize=auto;html=1;entryX=1;entryY=0.5;entryDx=0;entryDy=0;entryPerimeter=0;" edge="1" parent="1" source="BBTjjnWvdYqN-btuLSBB-2" target="BBTjjnWvdYqN-btuLSBB-24">
          <mxGeometry relative="1" as="geometry" />
        </mxCell>
        <mxCell id="BBTjjnWvdYqN-btuLSBB-32" value="" style="edgeStyle=orthogonalEdgeStyle;rounded=0;orthogonalLoop=1;jettySize=auto;html=1;entryX=1;entryY=0.5;entryDx=0;entryDy=0;" edge="1" parent="1" source="BBTjjnWvdYqN-btuLSBB-3" target="BBTjjnWvdYqN-btuLSBB-31">
          <mxGeometry relative="1" as="geometry">
            <mxPoint x="580" y="305" as="sourcePoint" />
            <mxPoint x="310" y="305" as="targetPoint" />
          </mxGeometry>
        </mxCell>
        <mxCell id="BBTjjnWvdYqN-btuLSBB-31" value="GET" style="text;html=1;align=center;verticalAlign=middle;whiteSpace=wrap;rounded=0;" vertex="1" parent="1">
          <mxGeometry x="420" y="290" width="60" height="30" as="geometry" />
        </mxCell>
        <mxCell id="BBTjjnWvdYqN-btuLSBB-34" value="REDIS" style="rounded=1;whiteSpace=wrap;html=1;" vertex="1" parent="1">
          <mxGeometry x="360" y="160" width="120" height="60" as="geometry" />
        </mxCell>
        <mxCell id="BBTjjnWvdYqN-btuLSBB-38" value="POSTGRES" style="text;html=1;align=center;verticalAlign=middle;whiteSpace=wrap;rounded=0;" vertex="1" parent="1">
          <mxGeometry x="50" y="235" width="60" height="30" as="geometry" />
        </mxCell>
        <mxCell id="BBTjjnWvdYqN-btuLSBB-39" value="&lt;span style=&quot;color: rgb(0, 0, 0); font-family: Helvetica; font-size: 12px; font-style: normal; font-variant-ligatures: normal; font-variant-caps: normal; font-weight: 400; letter-spacing: normal; orphans: 2; text-align: center; text-indent: 0px; text-transform: none; widows: 2; word-spacing: 0px; -webkit-text-stroke-width: 0px; white-space: normal; background-color: rgb(251, 251, 251); text-decoration-thickness: initial; text-decoration-style: initial; text-decoration-color: initial; display: inline !important; float: none;&quot;&gt;POSTGRES&lt;/span&gt;" style="text;whiteSpace=wrap;html=1;" vertex="1" parent="1">
          <mxGeometry x="810" y="240" width="100" height="40" as="geometry" />
        </mxCell>
        <mxCell id="BBTjjnWvdYqN-btuLSBB-41" style="edgeStyle=orthogonalEdgeStyle;rounded=0;orthogonalLoop=1;jettySize=auto;html=1;entryX=0.5;entryY=0;entryDx=0;entryDy=0;" edge="1" parent="1" source="BBTjjnWvdYqN-btuLSBB-40" target="BBTjjnWvdYqN-btuLSBB-2">
          <mxGeometry relative="1" as="geometry" />
        </mxCell>
        <mxCell id="BBTjjnWvdYqN-btuLSBB-40" value="Client" style="ellipse;whiteSpace=wrap;html=1;" vertex="1" parent="1">
          <mxGeometry x="190" y="90" width="120" height="80" as="geometry" />
        </mxCell>
        <mxCell id="BBTjjnWvdYqN-btuLSBB-42" style="edgeStyle=orthogonalEdgeStyle;rounded=0;orthogonalLoop=1;jettySize=auto;html=1;entryX=0.75;entryY=0;entryDx=0;entryDy=0;" edge="1" parent="1" source="BBTjjnWvdYqN-btuLSBB-34" target="BBTjjnWvdYqN-btuLSBB-2">
          <mxGeometry relative="1" as="geometry" />
        </mxCell>
      </root>
    </mxGraphModel>
  </diagram>
</mxfile>
